<?xml version="1.0" encoding="UTF-8"?>
<!DOCTYPE svg PUBLIC "-//W3C//DTD SVG 1.1//EN" "http://www.w3.org/Graphics/SVG/1.1/DTD/svg11.dtd">
<svg width="160mm" height="90mm" viewBox="0 0 16000 9000" version="1.1" xmlns="http://www.w3.org/2000/svg" xmlns:xlink="http://www.w3.org/1999/xlink" stroke-width="28.222" stroke-linejoin="round" xml:space="preserve">
 <path fill="rgb(255,255,255)" stroke="none" d="M 8000,8999 L 0,8999 0,19 15999,19 15999,8999 8000,8999 Z"/>
 <path fill="none" stroke="rgb(179,179,179)" stroke-linejoin="round" d="M 8793,6887 L 1907,6887 1907,199 15679,199 15679,6887 8793,6887 Z"/>
 <path fill="none" stroke="rgb(179,179,179)" stroke-linejoin="round" d="M 15679,6886 L 1907,6886"/>
 <path fill="none" stroke="rgb(179,179,179)" stroke-linejoin="round" d="M 15679,5548 L 1907,5548"/>
 <path fill="none" stroke="rgb(179,179,179)" stroke-linejoin="round" d="M 15679,4210 L 1907,4210"/>
 <path fill="none" stroke="rgb(179,179,179)" stroke-linejoin="round" d="M 15679,2873 L 1907,2873"/>
 <path fill="none" stroke="rgb(179,179,179)" stroke-linejoin="round" d="M 15679,1535 L 1907,1535"/>
 <path fill="none" stroke="rgb(179,179,179)" stroke-linejoin="round" d="M 15679,198 L 1907,198"/>
 <path fill="none" stroke="rgb(179,179,179)" stroke-linejoin="round" d="M 1907,7035 L 1907,6886"/>
 <path fill="none" stroke="rgb(179,179,179)" stroke-linejoin="round" d="M 1907,7035 L 1907,6886"/>
 <path fill="none" stroke="rgb(179,179,179)" stroke-linejoin="round" d="M 2767,7035 L 2767,6886"/>
 <path fill="none" stroke="rgb(179,179,179)" stroke-linejoin="round" d="M 2767,7035 L 2767,6886"/>
 <path fill="none" stroke="rgb(179,179,179)" stroke-linejoin="round" d="M 3628,7035 L 3628,6886"/>
 <path fill="none" stroke="rgb(179,179,179)" stroke-linejoin="round" d="M 3628,7035 L 3628,6886"/>
 <path fill="none" stroke="rgb(179,179,179)" stroke-linejoin="round" d="M 4489,7035 L 4489,6886"/>
 <path fill="none" stroke="rgb(179,179,179)" stroke-linejoin="round" d="M 4489,7035 L 4489,6886"/>
 <path fill="none" stroke="rgb(179,179,179)" stroke-linejoin="round" d="M 5350,7035 L 5350,6886"/>
 <path fill="none" stroke="rgb(179,179,179)" stroke-linejoin="round" d="M 5350,7035 L 5350,6886"/>
 <path fill="none" stroke="rgb(179,179,179)" stroke-linejoin="round" d="M 6211,7035 L 6211,6886"/>
 <path fill="none" stroke="rgb(179,179,179)" stroke-linejoin="round" d="M 6211,7035 L 6211,6886"/>
 <path fill="none" stroke="rgb(179,179,179)" stroke-linejoin="round" d="M 7071,7035 L 7071,6886"/>
 <path fill="none" stroke="rgb(179,179,179)" stroke-linejoin="round" d="M 7071,7035 L 7071,6886"/>
 <path fill="none" stroke="rgb(179,179,179)" stroke-linejoin="round" d="M 7932,7035 L 7932,6886"/>
 <path fill="none" stroke="rgb(179,179,179)" stroke-linejoin="round" d="M 7932,7035 L 7932,6886"/>
 <path fill="none" stroke="rgb(179,179,179)" stroke-linejoin="round" d="M 8792,7035 L 8792,6886"/>
 <path fill="none" stroke="rgb(179,179,179)" stroke-linejoin="round" d="M 8792,7035 L 8792,6886"/>
 <path fill="none" stroke="rgb(179,179,179)" stroke-linejoin="round" d="M 9653,7035 L 9653,6886"/>
 <path fill="none" stroke="rgb(179,179,179)" stroke-linejoin="round" d="M 9653,7035 L 9653,6886"/>
 <path fill="none" stroke="rgb(179,179,179)" stroke-linejoin="round" d="M 10514,7035 L 10514,6886"/>
 <path fill="none" stroke="rgb(179,179,179)" stroke-linejoin="round" d="M 10514,7035 L 10514,6886"/>
 <path fill="none" stroke="rgb(179,179,179)" stroke-linejoin="round" d="M 11374,7035 L 11374,6886"/>
 <path fill="none" stroke="rgb(179,179,179)" stroke-linejoin="round" d="M 11374,7035 L 11374,6886"/>
 <path fill="none" stroke="rgb(179,179,179)" stroke-linejoin="round" d="M 12235,7035 L 12235,6886"/>
 <path fill="none" stroke="rgb(179,179,179)" stroke-linejoin="round" d="M 12235,7035 L 12235,6886"/>
 <path fill="none" stroke="rgb(179,179,179)" stroke-linejoin="round" d="M 13096,7035 L 13096,6886"/>
 <path fill="none" stroke="rgb(179,179,179)" stroke-linejoin="round" d="M 13096,7035 L 13096,6886"/>
 <path fill="none" stroke="rgb(179,179,179)" stroke-linejoin="round" d="M 13957,7035 L 13957,6886"/>
 <path fill="none" stroke="rgb(179,179,179)" stroke-linejoin="round" d="M 13957,7035 L 13957,6886"/>
 <path fill="none" stroke="rgb(179,179,179)" stroke-linejoin="round" d="M 14818,7035 L 14818,6886"/>
 <path fill="none" stroke="rgb(179,179,179)" stroke-linejoin="round" d="M 14818,7035 L 14818,6886"/>
 <path fill="none" stroke="rgb(179,179,179)" stroke-linejoin="round" d="M 15679,7035 L 15679,6886"/>
 <path fill="none" stroke="rgb(179,179,179)" stroke-linejoin="round" d="M 15679,7035 L 15679,6886"/>
 <path fill="none" stroke="rgb(179,179,179)" stroke-linejoin="round" d="M 1907,6886 L 15679,6886"/>
 <path fill="none" stroke="rgb(179,179,179)" stroke-linejoin="round" d="M 1757,6886 L 1907,6886"/>
 <path fill="none" stroke="rgb(179,179,179)" stroke-linejoin="round" d="M 1757,6886 L 1907,6886"/>
 <path fill="none" stroke="rgb(179,179,179)" stroke-linejoin="round" d="M 1757,5548 L 1907,5548"/>
 <path fill="none" stroke="rgb(179,179,179)" stroke-linejoin="round" d="M 1757,5548 L 1907,5548"/>
 <path fill="none" stroke="rgb(179,179,179)" stroke-linejoin="round" d="M 1757,4210 L 1907,4210"/>
 <path fill="none" stroke="rgb(179,179,179)" stroke-linejoin="round" d="M 1757,4210 L 1907,4210"/>
 <path fill="none" stroke="rgb(179,179,179)" stroke-linejoin="round" d="M 1757,2873 L 1907,2873"/>
 <path fill="none" stroke="rgb(179,179,179)" stroke-linejoin="round" d="M 1757,2873 L 1907,2873"/>
 <path fill="none" stroke="rgb(179,179,179)" stroke-linejoin="round" d="M 1757,1535 L 1907,1535"/>
 <path fill="none" stroke="rgb(179,179,179)" stroke-linejoin="round" d="M 1757,1535 L 1907,1535"/>
 <path fill="none" stroke="rgb(179,179,179)" stroke-linejoin="round" d="M 1757,198 L 1907,198"/>
 <path fill="none" stroke="rgb(179,179,179)" stroke-linejoin="round" d="M 1757,198 L 1907,198"/>
 <path fill="none" stroke="rgb(179,179,179)" stroke-linejoin="round" d="M 1907,6886 L 1907,198"/>
 <path fill="rgb(153,153,153)" stroke="none" d="M 15033,6886 L 15463,6886 15463,6655 15033,6655 15033,6886 Z"/>
 <path fill="rgb(153,153,153)" stroke="none" d="M 14172,6886 L 14602,6886 14602,6270 14172,6270 14172,6886 Z"/>
 <path fill="rgb(153,153,153)" stroke="none" d="M 13311,6886 L 13742,6886 13742,6035 13311,6035 13311,6886 Z"/>
 <path fill="rgb(153,153,153)" stroke="none" d="M 12450,6886 L 12881,6886 12881,6011 12450,6011 12450,6886 Z"/>
 <path fill="rgb(102,102,102)" stroke="none" d="M 11590,6886 L 12020,6886 12020,5754 11590,5754 11590,6886 Z"/>
 <path fill="rgb(153,153,153)" stroke="none" d="M 10729,6886 L 11159,6886 11159,3869 10729,3869 10729,6886 Z"/>
 <path fill="rgb(153,153,153)" stroke="none" d="M 9868,6886 L 10298,6886 10298,3620 9868,3620 9868,6886 Z"/>
 <path fill="rgb(153,153,153)" stroke="none" d="M 9007,6886 L 9438,6886 9438,3369 9007,3369 9007,6886 Z"/>
 <path fill="rgb(153,153,153)" stroke="none" d="M 8146,6886 L 8577,6886 8577,3381 8146,3381 8146,6886 Z"/>
 <path fill="rgb(153,153,153)" stroke="none" d="M 7287,6886 L 7717,6886 7717,3154 7287,3154 7287,6886 Z"/>
 <path fill="rgb(153,153,153)" stroke="none" d="M 6426,6886 L 6856,6886 6856,2895 6426,2895 6426,6886 Z"/>
 <path fill="rgb(153,153,153)" stroke="none" d="M 5565,6886 L 5995,6886 5995,2599 5565,2599 5565,6886 Z"/>
 <path fill="rgb(153,153,153)" stroke="none" d="M 4704,6886 L 5135,6886 5135,1842 4704,1842 4704,6886 Z"/>
 <path fill="rgb(153,153,153)" stroke="none" d="M 3843,6886 L 4274,6886 4274,1673 3843,1673 3843,6886 Z"/>
 <path fill="rgb(153,153,153)" stroke="none" d="M 2983,6886 L 3413,6886 3413,1582 2983,1582 2983,6886 Z"/>
 <path fill="rgb(153,153,153)" stroke="none" d="M 2122,6886 L 2552,6886 2552,1055 2122,1055 2122,6886 Z"/>
 <text class="TextShape" transform="rotate(-44.9 1916 7863)"><tspan class="TextParagraph" font-family="Times New Roman, serif" font-size="353px" font-weight="400"><tspan class="TextPosition" x="1916" y="7863"><tspan fill="rgb(17,17,17)" stroke="none">USA</tspan></tspan></tspan></text>
 <text class="TextShape" transform="rotate(-44.9 2341 8297)"><tspan class="TextParagraph" font-family="Times New Roman, serif" font-size="353px" font-weight="400"><tspan class="TextPosition" x="2341" y="8297"><tspan fill="rgb(17,17,17)" stroke="none">Denmark</tspan></tspan></tspan></text>
 <text class="TextShape" transform="rotate(-44.9 3342 8157)"><tspan class="TextParagraph" font-family="Times New Roman, serif" font-size="353px" font-weight="400"><tspan class="TextPosition" x="3342" y="8157"><tspan fill="rgb(17,17,17)" stroke="none">Sweden</tspan></tspan></tspan></text>
 <text class="TextShape" transform="rotate(-44.9 4638 7723)"><tspan class="TextParagraph" font-family="Times New Roman, serif" font-size="353px" font-weight="400"><tspan class="TextPosition" x="4638" y="7723"><tspan fill="rgb(17,17,17)" stroke="none">UK</tspan></tspan></tspan></text>
 <text class="TextShape" transform="rotate(-44.9 4937 8283)"><tspan class="TextParagraph" font-family="Times New Roman, serif" font-size="353px" font-weight="400"><tspan class="TextPosition" x="4937" y="8283"><tspan fill="rgb(17,17,17)" stroke="none">Australia</tspan></tspan></tspan></text>
 <text class="TextShape" transform="rotate(-44.9 5784 8297)"><tspan class="TextParagraph" font-family="Times New Roman, serif" font-size="353px" font-weight="400"><tspan class="TextPosition" x="5784" y="8297"><tspan fill="rgb(17,17,17)" stroke="none">Germany</tspan></tspan></tspan></text>
 <text class="TextShape" transform="rotate(-44.9 6715 8227)"><tspan class="TextParagraph" font-family="Times New Roman, serif" font-size="353px" font-weight="400"><tspan class="TextPosition" x="6715" y="8227"><tspan fill="rgb(17,17,17)" stroke="none">Belgium</tspan></tspan></tspan></text>
 <text class="TextShape" transform="rotate(-44.9 7632 8171)"><tspan class="TextParagraph" font-family="Times New Roman, serif" font-size="353px" font-weight="400"><tspan class="TextPosition" x="7632" y="8171"><tspan fill="rgb(17,17,17)" stroke="none">Holland</tspan></tspan></tspan></text>
 <text class="TextShape" transform="rotate(-44.9 8099 8564)"><tspan class="TextParagraph" font-family="Times New Roman, serif" font-size="353px" font-weight="400"><tspan class="TextPosition" x="8099" y="8564"><tspan fill="rgb(17,17,17)" stroke="none">Switzerland</tspan></tspan></tspan></text>
 <text class="TextShape" transform="rotate(-44.9 9353 8171)"><tspan class="TextParagraph" font-family="Times New Roman, serif" font-size="353px" font-weight="400"><tspan class="TextPosition" x="9353" y="8171"><tspan fill="rgb(17,17,17)" stroke="none">Norway</tspan></tspan></tspan></text>
 <text class="TextShape" transform="rotate(-44.9 10340 8046)"><tspan class="TextParagraph" font-family="Times New Roman, serif" font-size="353px" font-weight="400"><tspan class="TextPosition" x="10340" y="8046"><tspan fill="rgb(17,17,17)" stroke="none">France</tspan></tspan></tspan></text>
 <text class="TextShape" transform="rotate(-44.9 11313 7934)"><tspan class="TextParagraph" font-family="Times New Roman, serif" font-size="353px" font-weight="400"><tspan class="TextPosition" x="11313" y="7934"><tspan fill="rgb(17,17,17)" stroke="none">Japan</tspan></tspan></tspan></text>
 <text class="TextShape" transform="rotate(-44.9 12047 8060)"><tspan class="TextParagraph" font-family="Times New Roman, serif" font-size="353px" font-weight="400"><tspan class="TextPosition" x="12047" y="8060"><tspan fill="rgb(17,17,17)" stroke="none">Poland</tspan></tspan></tspan></text>
 <text class="TextShape" transform="rotate(-44.9 12977 7990)"><tspan class="TextParagraph" font-family="Times New Roman, serif" font-size="353px" font-weight="400"><tspan class="TextPosition" x="12977" y="7990"><tspan fill="rgb(17,17,17)" stroke="none">USSR</tspan></tspan></tspan></text>
 <text class="TextShape" transform="rotate(-44.9 14007 7822)"><tspan class="TextParagraph" font-family="Times New Roman, serif" font-size="353px" font-weight="400"><tspan class="TextPosition" x="14007" y="7822"><tspan fill="rgb(17,17,17)" stroke="none">Italy</tspan></tspan></tspan></text>
 <text class="TextShape" transform="rotate(-44.9 14124 8564)"><tspan class="TextParagraph" font-family="Times New Roman, serif" font-size="353px" font-weight="400"><tspan class="TextPosition" x="14124" y="8564"><tspan fill="rgb(17,17,17)" stroke="none">Manchukuo</tspan></tspan></tspan></text>
 <text class="TextShape"><tspan class="TextParagraph" font-family="Times New Roman, serif" font-size="352px" font-weight="400"><tspan class="TextPosition" x="1478" y="7006"><tspan fill="rgb(17,17,17)" stroke="none">0</tspan></tspan></tspan></text>
 <text class="TextShape"><tspan class="TextParagraph" font-family="Times New Roman, serif" font-size="352px" font-weight="400"><tspan class="TextPosition" x="1478" y="5668"><tspan fill="rgb(17,17,17)" stroke="none">5</tspan></tspan></tspan></text>
 <text class="TextShape"><tspan class="TextParagraph" font-family="Times New Roman, serif" font-size="352px" font-weight="400"><tspan class="TextPosition" x="1300" y="4330"><tspan fill="rgb(17,17,17)" stroke="none">10</tspan></tspan></tspan></text>
 <text class="TextShape"><tspan class="TextParagraph" font-family="Times New Roman, serif" font-size="352px" font-weight="400"><tspan class="TextPosition" x="1300" y="2993"><tspan fill="rgb(17,17,17)" stroke="none">15</tspan></tspan></tspan></text>
 <text class="TextShape"><tspan class="TextParagraph" font-family="Times New Roman, serif" font-size="352px" font-weight="400"><tspan class="TextPosition" x="1300" y="1655"><tspan fill="rgb(17,17,17)" stroke="none">20</tspan></tspan></tspan></text>
 <text class="TextShape"><tspan class="TextParagraph" font-family="Times New Roman, serif" font-size="352px" font-weight="400"><tspan class="TextPosition" x="1300" y="318"><tspan fill="rgb(17,17,17)" stroke="none">25</tspan></tspan></tspan></text>
 <text class="TextShape" transform="rotate(-90 1033 3670)"><tspan class="TextParagraph" font-family="Times New Roman, serif" font-size="318px" font-weight="400"><tspan class="TextPosition" x="1033" y="3670"><tspan fill="rgb(17,17,17)" stroke="none">%</tspan></tspan></tspan></text>
</svg>