<?xml version="1.0" encoding="UTF-8"?>
<!DOCTYPE svg PUBLIC "-//W3C//DTD SVG 1.1//EN" "http://www.w3.org/Graphics/SVG/1.1/DTD/svg11.dtd">
<svg width="160mm" height="90mm" viewBox="0 0 16000 9000" version="1.1" xmlns="http://www.w3.org/2000/svg" xmlns:xlink="http://www.w3.org/1999/xlink" stroke-width="28.222" stroke-linejoin="round" xml:space="preserve">
 <path fill="rgb(255,255,255)" stroke="none" d="M 8000,8999 L 0,8999 0,19 15999,19 15999,8999 8000,8999 Z"/>
 <path fill="none" stroke="rgb(179,179,179)" stroke-linejoin="round" d="M 8303,6887 L 928,6887 928,199 15679,199 15679,6887 8303,6887 Z"/>
 <path fill="none" stroke="rgb(179,179,179)" stroke-linejoin="round" d="M 15679,6886 L 928,6886"/>
 <path fill="none" stroke="rgb(179,179,179)" stroke-linejoin="round" d="M 15679,5548 L 928,5548"/>
 <path fill="none" stroke="rgb(179,179,179)" stroke-linejoin="round" d="M 15679,4210 L 928,4210"/>
 <path fill="none" stroke="rgb(179,179,179)" stroke-linejoin="round" d="M 15679,2873 L 928,2873"/>
 <path fill="none" stroke="rgb(179,179,179)" stroke-linejoin="round" d="M 15679,1535 L 928,1535"/>
 <path fill="none" stroke="rgb(179,179,179)" stroke-linejoin="round" d="M 15679,198 L 928,198"/>
 <path fill="none" stroke="rgb(179,179,179)" stroke-linejoin="round" d="M 928,7035 L 928,6886"/>
 <path fill="none" stroke="rgb(179,179,179)" stroke-linejoin="round" d="M 928,7035 L 928,6886"/>
 <path fill="none" stroke="rgb(179,179,179)" stroke-linejoin="round" d="M 1850,7035 L 1850,6886"/>
 <path fill="none" stroke="rgb(179,179,179)" stroke-linejoin="round" d="M 1850,7035 L 1850,6886"/>
 <path fill="none" stroke="rgb(179,179,179)" stroke-linejoin="round" d="M 2772,7035 L 2772,6886"/>
 <path fill="none" stroke="rgb(179,179,179)" stroke-linejoin="round" d="M 2772,7035 L 2772,6886"/>
 <path fill="none" stroke="rgb(179,179,179)" stroke-linejoin="round" d="M 3694,7035 L 3694,6886"/>
 <path fill="none" stroke="rgb(179,179,179)" stroke-linejoin="round" d="M 3694,7035 L 3694,6886"/>
 <path fill="none" stroke="rgb(179,179,179)" stroke-linejoin="round" d="M 4616,7035 L 4616,6886"/>
 <path fill="none" stroke="rgb(179,179,179)" stroke-linejoin="round" d="M 4616,7035 L 4616,6886"/>
 <path fill="none" stroke="rgb(179,179,179)" stroke-linejoin="round" d="M 5538,7035 L 5538,6886"/>
 <path fill="none" stroke="rgb(179,179,179)" stroke-linejoin="round" d="M 5538,7035 L 5538,6886"/>
 <path fill="none" stroke="rgb(179,179,179)" stroke-linejoin="round" d="M 6460,7035 L 6460,6886"/>
 <path fill="none" stroke="rgb(179,179,179)" stroke-linejoin="round" d="M 6460,7035 L 6460,6886"/>
 <path fill="none" stroke="rgb(179,179,179)" stroke-linejoin="round" d="M 7382,7035 L 7382,6886"/>
 <path fill="none" stroke="rgb(179,179,179)" stroke-linejoin="round" d="M 7382,7035 L 7382,6886"/>
 <path fill="none" stroke="rgb(179,179,179)" stroke-linejoin="round" d="M 8303,7035 L 8303,6886"/>
 <path fill="none" stroke="rgb(179,179,179)" stroke-linejoin="round" d="M 8303,7035 L 8303,6886"/>
 <path fill="none" stroke="rgb(179,179,179)" stroke-linejoin="round" d="M 9225,7035 L 9225,6886"/>
 <path fill="none" stroke="rgb(179,179,179)" stroke-linejoin="round" d="M 9225,7035 L 9225,6886"/>
 <path fill="none" stroke="rgb(179,179,179)" stroke-linejoin="round" d="M 10147,7035 L 10147,6886"/>
 <path fill="none" stroke="rgb(179,179,179)" stroke-linejoin="round" d="M 10147,7035 L 10147,6886"/>
 <path fill="none" stroke="rgb(179,179,179)" stroke-linejoin="round" d="M 11069,7035 L 11069,6886"/>
 <path fill="none" stroke="rgb(179,179,179)" stroke-linejoin="round" d="M 11069,7035 L 11069,6886"/>
 <path fill="none" stroke="rgb(179,179,179)" stroke-linejoin="round" d="M 11991,7035 L 11991,6886"/>
 <path fill="none" stroke="rgb(179,179,179)" stroke-linejoin="round" d="M 11991,7035 L 11991,6886"/>
 <path fill="none" stroke="rgb(179,179,179)" stroke-linejoin="round" d="M 12913,7035 L 12913,6886"/>
 <path fill="none" stroke="rgb(179,179,179)" stroke-linejoin="round" d="M 12913,7035 L 12913,6886"/>
 <path fill="none" stroke="rgb(179,179,179)" stroke-linejoin="round" d="M 13835,7035 L 13835,6886"/>
 <path fill="none" stroke="rgb(179,179,179)" stroke-linejoin="round" d="M 13835,7035 L 13835,6886"/>
 <path fill="none" stroke="rgb(179,179,179)" stroke-linejoin="round" d="M 14757,7035 L 14757,6886"/>
 <path fill="none" stroke="rgb(179,179,179)" stroke-linejoin="round" d="M 14757,7035 L 14757,6886"/>
 <path fill="none" stroke="rgb(179,179,179)" stroke-linejoin="round" d="M 15679,7035 L 15679,6886"/>
 <path fill="none" stroke="rgb(179,179,179)" stroke-linejoin="round" d="M 15679,7035 L 15679,6886"/>
 <path fill="none" stroke="rgb(179,179,179)" stroke-linejoin="round" d="M 928,6886 L 15679,6886"/>
 <path fill="none" stroke="rgb(179,179,179)" stroke-linejoin="round" d="M 778,6886 L 928,6886"/>
 <path fill="none" stroke="rgb(179,179,179)" stroke-linejoin="round" d="M 778,6886 L 928,6886"/>
 <path fill="none" stroke="rgb(179,179,179)" stroke-linejoin="round" d="M 778,5548 L 928,5548"/>
 <path fill="none" stroke="rgb(179,179,179)" stroke-linejoin="round" d="M 778,5548 L 928,5548"/>
 <path fill="none" stroke="rgb(179,179,179)" stroke-linejoin="round" d="M 778,4210 L 928,4210"/>
 <path fill="none" stroke="rgb(179,179,179)" stroke-linejoin="round" d="M 778,4210 L 928,4210"/>
 <path fill="none" stroke="rgb(179,179,179)" stroke-linejoin="round" d="M 778,2873 L 928,2873"/>
 <path fill="none" stroke="rgb(179,179,179)" stroke-linejoin="round" d="M 778,2873 L 928,2873"/>
 <path fill="none" stroke="rgb(179,179,179)" stroke-linejoin="round" d="M 778,1535 L 928,1535"/>
 <path fill="none" stroke="rgb(179,179,179)" stroke-linejoin="round" d="M 778,1535 L 928,1535"/>
 <path fill="none" stroke="rgb(179,179,179)" stroke-linejoin="round" d="M 778,198 L 928,198"/>
 <path fill="none" stroke="rgb(179,179,179)" stroke-linejoin="round" d="M 778,198 L 928,198"/>
 <path fill="none" stroke="rgb(179,179,179)" stroke-linejoin="round" d="M 928,6886 L 928,198"/>
 <path fill="rgb(153,153,153)" stroke="none" d="M 14987,6886 L 15448,6886 15448,6655 14987,6655 14987,6886 Z"/>
 <path fill="rgb(153,153,153)" stroke="none" d="M 14065,6886 L 14526,6886 14526,6270 14065,6270 14065,6886 Z"/>
 <path fill="rgb(153,153,153)" stroke="none" d="M 13143,6886 L 13604,6886 13604,6035 13143,6035 13143,6886 Z"/>
 <path fill="rgb(153,153,153)" stroke="none" d="M 12221,6886 L 12682,6886 12682,6011 12221,6011 12221,6886 Z"/>
 <path fill="rgb(102,102,102)" stroke="none" d="M 11299,6886 L 11760,6886 11760,5754 11299,5754 11299,6886 Z"/>
 <path fill="rgb(153,153,153)" stroke="none" d="M 10377,6886 L 10838,6886 10838,3869 10377,3869 10377,6886 Z"/>
 <path fill="rgb(153,153,153)" stroke="none" d="M 9455,6886 L 9916,6886 9916,3620 9455,3620 9455,6886 Z"/>
 <path fill="rgb(153,153,153)" stroke="none" d="M 8533,6886 L 8994,6886 8994,3369 8533,3369 8533,6886 Z"/>
 <path fill="rgb(153,153,153)" stroke="none" d="M 7612,6886 L 8072,6886 8072,3381 7612,3381 7612,6886 Z"/>
 <path fill="rgb(153,153,153)" stroke="none" d="M 6690,6886 L 7151,6886 7151,3154 6690,3154 6690,6886 Z"/>
 <path fill="rgb(153,153,153)" stroke="none" d="M 5768,6886 L 6229,6886 6229,2895 5768,2895 5768,6886 Z"/>
 <path fill="rgb(153,153,153)" stroke="none" d="M 4846,6886 L 5307,6886 5307,2599 4846,2599 4846,6886 Z"/>
 <path fill="rgb(153,153,153)" stroke="none" d="M 3924,6886 L 4385,6886 4385,1842 3924,1842 3924,6886 Z"/>
 <path fill="rgb(153,153,153)" stroke="none" d="M 3002,6886 L 3463,6886 3463,1673 3002,1673 3002,6886 Z"/>
 <path fill="rgb(153,153,153)" stroke="none" d="M 2080,6886 L 2541,6886 2541,1582 2080,1582 2080,6886 Z"/>
 <path fill="rgb(153,153,153)" stroke="none" d="M 1158,6886 L 1619,6886 1619,1055 1158,1055 1158,6886 Z"/>
 <text class="TextShape" transform="rotate(-44.9 968 7863)"><tspan class="TextParagraph" font-family="Times New Roman, serif" font-size="353px" font-weight="400"><tspan class="TextPosition" x="968" y="7863"><tspan fill="rgb(17,17,17)" stroke="none">USA</tspan></tspan></tspan></text>
 <text class="TextShape" transform="rotate(-44.9 1454 8297)"><tspan class="TextParagraph" font-family="Times New Roman, serif" font-size="353px" font-weight="400"><tspan class="TextPosition" x="1454" y="8297"><tspan fill="rgb(17,17,17)" stroke="none">Denmark</tspan></tspan></tspan></text>
 <text class="TextShape" transform="rotate(-44.9 2516 8157)"><tspan class="TextParagraph" font-family="Times New Roman, serif" font-size="353px" font-weight="400"><tspan class="TextPosition" x="2516" y="8157"><tspan fill="rgb(17,17,17)" stroke="none">Sweden</tspan></tspan></tspan></text>
 <text class="TextShape" transform="rotate(-44.9 3874 7723)"><tspan class="TextParagraph" font-family="Times New Roman, serif" font-size="353px" font-weight="400"><tspan class="TextPosition" x="3874" y="7723"><tspan fill="rgb(17,17,17)" stroke="none">UK</tspan></tspan></tspan></text>
 <text class="TextShape" transform="rotate(-44.9 4234 8283)"><tspan class="TextParagraph" font-family="Times New Roman, serif" font-size="353px" font-weight="400"><tspan class="TextPosition" x="4234" y="8283"><tspan fill="rgb(17,17,17)" stroke="none">Australia</tspan></tspan></tspan></text>
 <text class="TextShape" transform="rotate(-44.9 5142 8297)"><tspan class="TextParagraph" font-family="Times New Roman, serif" font-size="353px" font-weight="400"><tspan class="TextPosition" x="5142" y="8297"><tspan fill="rgb(17,17,17)" stroke="none">Germany</tspan></tspan></tspan></text>
 <text class="TextShape" transform="rotate(-44.9 6134 8227)"><tspan class="TextParagraph" font-family="Times New Roman, serif" font-size="353px" font-weight="400"><tspan class="TextPosition" x="6134" y="8227"><tspan fill="rgb(17,17,17)" stroke="none">Belgium</tspan></tspan></tspan></text>
 <text class="TextShape" transform="rotate(-44.9 7112 8171)"><tspan class="TextParagraph" font-family="Times New Roman, serif" font-size="353px" font-weight="400"><tspan class="TextPosition" x="7112" y="8171"><tspan fill="rgb(17,17,17)" stroke="none">Holland</tspan></tspan></tspan></text>
 <text class="TextShape" transform="rotate(-44.9 7641 8564)"><tspan class="TextParagraph" font-family="Times New Roman, serif" font-size="353px" font-weight="400"><tspan class="TextPosition" x="7641" y="8564"><tspan fill="rgb(17,17,17)" stroke="none">Switzerland</tspan></tspan></tspan></text>
 <text class="TextShape" transform="rotate(-44.9 8956 8171)"><tspan class="TextParagraph" font-family="Times New Roman, serif" font-size="353px" font-weight="400"><tspan class="TextPosition" x="8956" y="8171"><tspan fill="rgb(17,17,17)" stroke="none">Norway</tspan></tspan></tspan></text>
 <text class="TextShape" transform="rotate(-44.9 10004 8046)"><tspan class="TextParagraph" font-family="Times New Roman, serif" font-size="353px" font-weight="400"><tspan class="TextPosition" x="10004" y="8046"><tspan fill="rgb(17,17,17)" stroke="none">France</tspan></tspan></tspan></text>
 <text class="TextShape" transform="rotate(-44.9 11038 7934)"><tspan class="TextParagraph" font-family="Times New Roman, serif" font-size="353px" font-weight="400"><tspan class="TextPosition" x="11038" y="7934"><tspan fill="rgb(17,17,17)" stroke="none">Japan</tspan></tspan></tspan></text>
 <text class="TextShape" transform="rotate(-44.9 11833 8060)"><tspan class="TextParagraph" font-family="Times New Roman, serif" font-size="353px" font-weight="400"><tspan class="TextPosition" x="11833" y="8060"><tspan fill="rgb(17,17,17)" stroke="none">Poland</tspan></tspan></tspan></text>
 <text class="TextShape" transform="rotate(-44.9 12825 7990)"><tspan class="TextParagraph" font-family="Times New Roman, serif" font-size="353px" font-weight="400"><tspan class="TextPosition" x="12825" y="7990"><tspan fill="rgb(17,17,17)" stroke="none">USSR</tspan></tspan></tspan></text>
 <text class="TextShape" transform="rotate(-44.9 13916 7822)"><tspan class="TextParagraph" font-family="Times New Roman, serif" font-size="353px" font-weight="400"><tspan class="TextPosition" x="13916" y="7822"><tspan fill="rgb(17,17,17)" stroke="none">Italy</tspan></tspan></tspan></text>
 <text class="TextShape" transform="rotate(-44.9 14094 8564)"><tspan class="TextParagraph" font-family="Times New Roman, serif" font-size="353px" font-weight="400"><tspan class="TextPosition" x="14094" y="8564"><tspan fill="rgb(17,17,17)" stroke="none">Manchukuo</tspan></tspan></tspan></text>
 <text class="TextShape"><tspan class="TextParagraph" font-family="Times New Roman, serif" font-size="352px" font-weight="400"><tspan class="TextPosition" x="499" y="7006"><tspan fill="rgb(17,17,17)" stroke="none">0</tspan></tspan></tspan></text>
 <text class="TextShape"><tspan class="TextParagraph" font-family="Times New Roman, serif" font-size="352px" font-weight="400"><tspan class="TextPosition" x="499" y="5668"><tspan fill="rgb(17,17,17)" stroke="none">5</tspan></tspan></tspan></text>
 <text class="TextShape"><tspan class="TextParagraph" font-family="Times New Roman, serif" font-size="352px" font-weight="400"><tspan class="TextPosition" x="321" y="4330"><tspan fill="rgb(17,17,17)" stroke="none">10</tspan></tspan></tspan></text>
 <text class="TextShape"><tspan class="TextParagraph" font-family="Times New Roman, serif" font-size="352px" font-weight="400"><tspan class="TextPosition" x="321" y="2993"><tspan fill="rgb(17,17,17)" stroke="none">15</tspan></tspan></tspan></text>
 <text class="TextShape"><tspan class="TextParagraph" font-family="Times New Roman, serif" font-size="352px" font-weight="400"><tspan class="TextPosition" x="321" y="1655"><tspan fill="rgb(17,17,17)" stroke="none">20</tspan></tspan></tspan></text>
 <text class="TextShape"><tspan class="TextParagraph" font-family="Times New Roman, serif" font-size="352px" font-weight="400"><tspan class="TextPosition" x="321" y="318"><tspan fill="rgb(17,17,17)" stroke="none">25</tspan></tspan></tspan></text>
</svg>