<?xml version="1.0" encoding="UTF-8"?>
<!DOCTYPE svg PUBLIC "-//W3C//DTD SVG 1.1//EN" "http://www.w3.org/Graphics/SVG/1.1/DTD/svg11.dtd">
<svg width="160mm" height="90mm" viewBox="0 0 16000 9000" version="1.1" xmlns="http://www.w3.org/2000/svg" xmlns:xlink="http://www.w3.org/1999/xlink" stroke-width="28.222" stroke-linejoin="round" xml:space="preserve">
 <path fill="rgb(255,255,255)" stroke="none" d="M 8000,8999 L 0,8999 0,17 15999,17 15999,8999 8000,8999 Z"/>
 <path fill="none" stroke="rgb(179,179,179)" stroke-linejoin="round" d="M 8329,6761 L 980,6761 980,197 15679,197 15679,6761 8329,6761 Z"/>
 <path fill="none" stroke="rgb(179,179,179)" stroke-linejoin="round" d="M 15679,6760 L 980,6760"/>
 <path fill="none" stroke="rgb(179,179,179)" stroke-linejoin="round" d="M 15679,5447 L 980,5447"/>
 <path fill="none" stroke="rgb(179,179,179)" stroke-linejoin="round" d="M 15679,4134 L 980,4134"/>
 <path fill="none" stroke="rgb(179,179,179)" stroke-linejoin="round" d="M 15679,2821 L 980,2821"/>
 <path fill="none" stroke="rgb(179,179,179)" stroke-linejoin="round" d="M 15679,1508 L 980,1508"/>
 <path fill="none" stroke="rgb(179,179,179)" stroke-linejoin="round" d="M 15679,196 L 980,196"/>
 <path fill="none" stroke="rgb(179,179,179)" stroke-linejoin="round" d="M 980,6910 L 980,6760"/>
 <path fill="none" stroke="rgb(179,179,179)" stroke-linejoin="round" d="M 980,6910 L 980,6760"/>
 <path fill="none" stroke="rgb(179,179,179)" stroke-linejoin="round" d="M 1898,6910 L 1898,6760"/>
 <path fill="none" stroke="rgb(179,179,179)" stroke-linejoin="round" d="M 1898,6910 L 1898,6760"/>
 <path fill="none" stroke="rgb(179,179,179)" stroke-linejoin="round" d="M 2817,6910 L 2817,6760"/>
 <path fill="none" stroke="rgb(179,179,179)" stroke-linejoin="round" d="M 2817,6910 L 2817,6760"/>
 <path fill="none" stroke="rgb(179,179,179)" stroke-linejoin="round" d="M 3736,6910 L 3736,6760"/>
 <path fill="none" stroke="rgb(179,179,179)" stroke-linejoin="round" d="M 3736,6910 L 3736,6760"/>
 <path fill="none" stroke="rgb(179,179,179)" stroke-linejoin="round" d="M 4655,6910 L 4655,6760"/>
 <path fill="none" stroke="rgb(179,179,179)" stroke-linejoin="round" d="M 4655,6910 L 4655,6760"/>
 <path fill="none" stroke="rgb(179,179,179)" stroke-linejoin="round" d="M 5573,6910 L 5573,6760"/>
 <path fill="none" stroke="rgb(179,179,179)" stroke-linejoin="round" d="M 5573,6910 L 5573,6760"/>
 <path fill="none" stroke="rgb(179,179,179)" stroke-linejoin="round" d="M 6492,6910 L 6492,6760"/>
 <path fill="none" stroke="rgb(179,179,179)" stroke-linejoin="round" d="M 6492,6910 L 6492,6760"/>
 <path fill="none" stroke="rgb(179,179,179)" stroke-linejoin="round" d="M 7411,6910 L 7411,6760"/>
 <path fill="none" stroke="rgb(179,179,179)" stroke-linejoin="round" d="M 7411,6910 L 7411,6760"/>
 <path fill="none" stroke="rgb(179,179,179)" stroke-linejoin="round" d="M 8329,6910 L 8329,6760"/>
 <path fill="none" stroke="rgb(179,179,179)" stroke-linejoin="round" d="M 8329,6910 L 8329,6760"/>
 <path fill="none" stroke="rgb(179,179,179)" stroke-linejoin="round" d="M 9247,6910 L 9247,6760"/>
 <path fill="none" stroke="rgb(179,179,179)" stroke-linejoin="round" d="M 9247,6910 L 9247,6760"/>
 <path fill="none" stroke="rgb(179,179,179)" stroke-linejoin="round" d="M 10166,6910 L 10166,6760"/>
 <path fill="none" stroke="rgb(179,179,179)" stroke-linejoin="round" d="M 10166,6910 L 10166,6760"/>
 <path fill="none" stroke="rgb(179,179,179)" stroke-linejoin="round" d="M 11085,6910 L 11085,6760"/>
 <path fill="none" stroke="rgb(179,179,179)" stroke-linejoin="round" d="M 11085,6910 L 11085,6760"/>
 <path fill="none" stroke="rgb(179,179,179)" stroke-linejoin="round" d="M 12004,6910 L 12004,6760"/>
 <path fill="none" stroke="rgb(179,179,179)" stroke-linejoin="round" d="M 12004,6910 L 12004,6760"/>
 <path fill="none" stroke="rgb(179,179,179)" stroke-linejoin="round" d="M 12922,6910 L 12922,6760"/>
 <path fill="none" stroke="rgb(179,179,179)" stroke-linejoin="round" d="M 12922,6910 L 12922,6760"/>
 <path fill="none" stroke="rgb(179,179,179)" stroke-linejoin="round" d="M 13841,6910 L 13841,6760"/>
 <path fill="none" stroke="rgb(179,179,179)" stroke-linejoin="round" d="M 13841,6910 L 13841,6760"/>
 <path fill="none" stroke="rgb(179,179,179)" stroke-linejoin="round" d="M 14760,6910 L 14760,6760"/>
 <path fill="none" stroke="rgb(179,179,179)" stroke-linejoin="round" d="M 14760,6910 L 14760,6760"/>
 <path fill="none" stroke="rgb(179,179,179)" stroke-linejoin="round" d="M 15679,6910 L 15679,6760"/>
 <path fill="none" stroke="rgb(179,179,179)" stroke-linejoin="round" d="M 15679,6910 L 15679,6760"/>
 <path fill="none" stroke="rgb(179,179,179)" stroke-linejoin="round" d="M 980,6760 L 15679,6760"/>
 <path fill="none" stroke="rgb(179,179,179)" stroke-linejoin="round" d="M 830,6760 L 980,6760"/>
 <path fill="none" stroke="rgb(179,179,179)" stroke-linejoin="round" d="M 830,6760 L 980,6760"/>
 <path fill="none" stroke="rgb(179,179,179)" stroke-linejoin="round" d="M 830,5447 L 980,5447"/>
 <path fill="none" stroke="rgb(179,179,179)" stroke-linejoin="round" d="M 830,5447 L 980,5447"/>
 <path fill="none" stroke="rgb(179,179,179)" stroke-linejoin="round" d="M 830,4134 L 980,4134"/>
 <path fill="none" stroke="rgb(179,179,179)" stroke-linejoin="round" d="M 830,4134 L 980,4134"/>
 <path fill="none" stroke="rgb(179,179,179)" stroke-linejoin="round" d="M 830,2821 L 980,2821"/>
 <path fill="none" stroke="rgb(179,179,179)" stroke-linejoin="round" d="M 830,2821 L 980,2821"/>
 <path fill="none" stroke="rgb(179,179,179)" stroke-linejoin="round" d="M 830,1508 L 980,1508"/>
 <path fill="none" stroke="rgb(179,179,179)" stroke-linejoin="round" d="M 830,1508 L 980,1508"/>
 <path fill="none" stroke="rgb(179,179,179)" stroke-linejoin="round" d="M 830,196 L 980,196"/>
 <path fill="none" stroke="rgb(179,179,179)" stroke-linejoin="round" d="M 830,196 L 980,196"/>
 <path fill="none" stroke="rgb(179,179,179)" stroke-linejoin="round" d="M 980,6760 L 980,196"/>
 <path fill="rgb(153,153,153)" stroke="none" d="M 14989,6760 L 15449,6760 15449,6534 14989,6534 14989,6760 Z"/>
 <path fill="rgb(153,153,153)" stroke="none" d="M 14071,6760 L 14530,6760 14530,6157 14071,6157 14071,6760 Z"/>
 <path fill="rgb(153,153,153)" stroke="none" d="M 13152,6760 L 13611,6760 13611,5925 13152,5925 13152,6760 Z"/>
 <path fill="rgb(153,153,153)" stroke="none" d="M 12233,6760 L 12693,6760 12693,5901 12233,5901 12233,6760 Z"/>
 <path fill="rgb(102,102,102)" stroke="none" d="M 11314,6760 L 11774,6760 11774,5650 11314,5650 11314,6760 Z"/>
 <path fill="rgb(153,153,153)" stroke="none" d="M 10396,6760 L 10855,6760 10855,3800 10396,3800 10396,6760 Z"/>
 <path fill="rgb(153,153,153)" stroke="none" d="M 9477,6760 L 9936,6760 9936,3555 9477,3555 9477,6760 Z"/>
 <path fill="rgb(153,153,153)" stroke="none" d="M 8558,6760 L 9018,6760 9018,3307 8558,3307 8558,6760 Z"/>
 <path fill="rgb(153,153,153)" stroke="none" d="M 7640,6760 L 8099,6760 8099,3320 7640,3320 7640,6760 Z"/>
 <path fill="rgb(153,153,153)" stroke="none" d="M 6722,6760 L 7181,6760 7181,3097 6722,3097 6722,6760 Z"/>
 <path fill="rgb(153,153,153)" stroke="none" d="M 5803,6760 L 6262,6760 6262,2842 5803,2842 5803,6760 Z"/>
 <path fill="rgb(153,153,153)" stroke="none" d="M 4884,6760 L 5344,6760 5344,2553 4884,2553 4884,6760 Z"/>
 <path fill="rgb(153,153,153)" stroke="none" d="M 3965,6760 L 4425,6760 4425,1809 3965,1809 3965,6760 Z"/>
 <path fill="rgb(153,153,153)" stroke="none" d="M 3047,6760 L 3506,6760 3506,1645 3047,1645 3047,6760 Z"/>
 <path fill="rgb(153,153,153)" stroke="none" d="M 2128,6760 L 2587,6760 2587,1555 2128,1555 2128,6760 Z"/>
 <path fill="rgb(153,153,153)" stroke="none" d="M 1209,6760 L 1669,6760 1669,1037 1209,1037 1209,6760 Z"/>
 <text class="TextShape" transform="rotate(-44.9 1009 7756)"><tspan class="TextParagraph" font-family="Times New Roman, serif" font-size="353px" font-weight="400"><tspan class="TextPosition" x="1009" y="7756"><tspan fill="rgb(17,17,17)" stroke="none">USA</tspan></tspan></tspan></text>
 <text class="TextShape" transform="rotate(-44.9 1411 8273)"><tspan class="TextParagraph" font-family="Times New Roman, serif" font-size="353px" font-weight="400"><tspan class="TextPosition" x="1411" y="8273"><tspan fill="rgb(17,17,17)" stroke="none">Denmark</tspan></tspan></tspan></text>
 <text class="TextShape" transform="rotate(-44.9 2436 8165)"><tspan class="TextParagraph" font-family="Times New Roman, serif" font-size="353px" font-weight="400"><tspan class="TextPosition" x="2436" y="8165"><tspan fill="rgb(17,17,17)" stroke="none">Sweden</tspan></tspan></tspan></text>
 <text class="TextShape" transform="rotate(-44.9 3934 7588)"><tspan class="TextParagraph" font-family="Times New Roman, serif" font-size="353px" font-weight="400"><tspan class="TextPosition" x="3934" y="7588"><tspan fill="rgb(17,17,17)" stroke="none">UK</tspan></tspan></tspan></text>
 <text class="TextShape" transform="rotate(-44.9 4191 8248)"><tspan class="TextParagraph" font-family="Times New Roman, serif" font-size="353px" font-weight="400"><tspan class="TextPosition" x="4191" y="8248"><tspan fill="rgb(17,17,17)" stroke="none">Australia</tspan></tspan></tspan></text>
 <text class="TextShape" transform="rotate(-44.9 5073 8286)"><tspan class="TextParagraph" font-family="Times New Roman, serif" font-size="353px" font-weight="400"><tspan class="TextPosition" x="5073" y="8286"><tspan fill="rgb(17,17,17)" stroke="none">Germany</tspan></tspan></tspan></text>
 <text class="TextShape" transform="rotate(-44.9 6111 8165)"><tspan class="TextParagraph" font-family="Times New Roman, serif" font-size="353px" font-weight="400"><tspan class="TextPosition" x="6111" y="8165"><tspan fill="rgb(17,17,17)" stroke="none">Belgium</tspan></tspan></tspan></text>
 <text class="TextShape" transform="rotate(-44.9 7079 8117)"><tspan class="TextParagraph" font-family="Times New Roman, serif" font-size="353px" font-weight="400"><tspan class="TextPosition" x="7079" y="8117"><tspan fill="rgb(17,17,17)" stroke="none">Holland</tspan></tspan></tspan></text>
 <text class="TextShape" transform="rotate(-44.9 7540 8574)"><tspan class="TextParagraph" font-family="Times New Roman, serif" font-size="353px" font-weight="400"><tspan class="TextPosition" x="7540" y="8574"><tspan fill="rgb(17,17,17)" stroke="none">Switzerland</tspan></tspan></tspan></text>
 <text class="TextShape" transform="rotate(-44.9 8929 8105)"><tspan class="TextParagraph" font-family="Times New Roman, serif" font-size="353px" font-weight="400"><tspan class="TextPosition" x="8929" y="8105"><tspan fill="rgb(17,17,17)" stroke="none">Norway</tspan></tspan></tspan></text>
 <text class="TextShape" transform="rotate(-44.9 9835 8117)"><tspan class="TextParagraph" font-family="Times New Roman, serif" font-size="353px" font-weight="400"><tspan class="TextPosition" x="9835" y="8117"><tspan fill="rgb(17,17,17)" stroke="none">France</tspan></tspan></tspan></text>
 <text class="TextShape" transform="rotate(-44.9 10922 7949)"><tspan class="TextParagraph" font-family="Times New Roman, serif" font-size="353px" font-weight="400"><tspan class="TextPosition" x="10922" y="7949"><tspan fill="rgb(17,17,17)" stroke="none">Japan</tspan></tspan></tspan></text>
 <text class="TextShape" transform="rotate(-44.9 11745 8045)"><tspan class="TextParagraph" font-family="Times New Roman, serif" font-size="353px" font-weight="400"><tspan class="TextPosition" x="11745" y="8045"><tspan fill="rgb(17,17,17)" stroke="none">Poland</tspan></tspan></tspan></text>
 <text class="TextShape" transform="rotate(-44.9 12772 7937)"><tspan class="TextParagraph" font-family="Times New Roman, serif" font-size="353px" font-weight="400"><tspan class="TextPosition" x="12772" y="7937"><tspan fill="rgb(17,17,17)" stroke="none">USSR</tspan></tspan></tspan></text>
 <text class="TextShape" transform="rotate(-44.9 13908 7719)"><tspan class="TextParagraph" font-family="Times New Roman, serif" font-size="353px" font-weight="400"><tspan class="TextPosition" x="13908" y="7719"><tspan fill="rgb(17,17,17)" stroke="none">Italy</tspan></tspan></tspan></text>
 <text class="TextShape" transform="rotate(-44.9 13971 8574)"><tspan class="TextParagraph" font-family="Times New Roman, serif" font-size="353px" font-weight="400"><tspan class="TextPosition" x="13971" y="8574"><tspan fill="rgb(17,17,17)" stroke="none">Manchukuo</tspan></tspan></tspan></text>
 <text class="TextShape"><tspan class="TextParagraph" font-family="Times New Roman, serif" font-size="352px" font-weight="400"><tspan class="TextPosition" x="525" y="6889"><tspan fill="rgb(17,17,17)" stroke="none">0</tspan></tspan></tspan></text>
 <text class="TextShape"><tspan class="TextParagraph" font-family="Times New Roman, serif" font-size="352px" font-weight="400"><tspan class="TextPosition" x="525" y="5575"><tspan fill="rgb(17,17,17)" stroke="none">5</tspan></tspan></tspan></text>
 <text class="TextShape"><tspan class="TextParagraph" font-family="Times New Roman, serif" font-size="352px" font-weight="400"><tspan class="TextPosition" x="321" y="4262"><tspan fill="rgb(17,17,17)" stroke="none">10</tspan></tspan></tspan></text>
 <text class="TextShape"><tspan class="TextParagraph" font-family="Times New Roman, serif" font-size="352px" font-weight="400"><tspan class="TextPosition" x="321" y="2950"><tspan fill="rgb(17,17,17)" stroke="none">15</tspan></tspan></tspan></text>
 <text class="TextShape"><tspan class="TextParagraph" font-family="Times New Roman, serif" font-size="352px" font-weight="400"><tspan class="TextPosition" x="321" y="1636"><tspan fill="rgb(17,17,17)" stroke="none">20</tspan></tspan></tspan></text>
 <text class="TextShape"><tspan class="TextParagraph" font-family="Times New Roman, serif" font-size="352px" font-weight="400"><tspan class="TextPosition" x="321" y="324"><tspan fill="rgb(17,17,17)" stroke="none">25</tspan></tspan></tspan></text>
 <path fill="rgb(153,153,153)" stroke="none" d="M 12915,967 L 12809,967 12809,756 13020,756 13020,967 12915,967 Z"/>
 <text class="TextShape"><tspan class="TextParagraph" font-family="Times New Roman, serif" font-size="352px" font-weight="400"><tspan class="TextPosition" x="13120" y="989"><tspan fill="rgb(17,17,17)" stroke="none">Penetration Rate</tspan></tspan></tspan></text>
</svg>
