<?xml version="1.0" encoding="UTF-8"?>
<!DOCTYPE svg PUBLIC "-//W3C//DTD SVG 1.1//EN" "http://www.w3.org/Graphics/SVG/1.1/DTD/svg11.dtd">
<svg width="168mm" height="77mm" viewBox="0 0 16800 7700" version="1.1" xmlns="http://www.w3.org/2000/svg" xmlns:xlink="http://www.w3.org/1999/xlink" stroke-width="28.222" stroke-linejoin="round" xml:space="preserve">
 <path fill="rgb(255,255,255)" stroke="none" d="M 8403,7717 L 0,7717 0,0 16805,0 16805,7717 8403,7717 Z"/>
 <path fill="none" stroke="rgb(179,179,179)" stroke-linejoin="round" d="M 8360,6916 L 1764,6916 1764,353 14955,353 14955,6916 8360,6916 Z"/>
 <path fill="none" stroke="rgb(179,179,179)" stroke-linejoin="round" d="M 14955,6915 L 1764,6915"/>
 <path fill="none" stroke="rgb(179,179,179)" stroke-linejoin="round" d="M 14955,6094 L 1764,6094"/>
 <path fill="none" stroke="rgb(179,179,179)" stroke-linejoin="round" d="M 14955,5274 L 1764,5274"/>
 <path fill="none" stroke="rgb(179,179,179)" stroke-linejoin="round" d="M 14955,4453 L 1764,4453"/>
 <path fill="none" stroke="rgb(179,179,179)" stroke-linejoin="round" d="M 14955,3634 L 1764,3634"/>
 <path fill="none" stroke="rgb(179,179,179)" stroke-linejoin="round" d="M 14955,2813 L 1764,2813"/>
 <path fill="none" stroke="rgb(179,179,179)" stroke-linejoin="round" d="M 14955,1993 L 1764,1993"/>
 <path fill="none" stroke="rgb(179,179,179)" stroke-linejoin="round" d="M 14955,1172 L 1764,1172"/>
 <path fill="none" stroke="rgb(179,179,179)" stroke-linejoin="round" d="M 14955,352 L 1764,352"/>
 <path fill="none" stroke="rgb(179,179,179)" stroke-linejoin="round" d="M 1764,7065 L 1764,6915"/>
 <path fill="none" stroke="rgb(179,179,179)" stroke-linejoin="round" d="M 1764,7065 L 1764,6915"/>
 <path fill="none" stroke="rgb(179,179,179)" stroke-linejoin="round" d="M 2392,7065 L 2392,6915"/>
 <path fill="none" stroke="rgb(179,179,179)" stroke-linejoin="round" d="M 2392,7065 L 2392,6915"/>
 <path fill="none" stroke="rgb(179,179,179)" stroke-linejoin="round" d="M 3020,7065 L 3020,6915"/>
 <path fill="none" stroke="rgb(179,179,179)" stroke-linejoin="round" d="M 3020,7065 L 3020,6915"/>
 <path fill="none" stroke="rgb(179,179,179)" stroke-linejoin="round" d="M 3648,7065 L 3648,6915"/>
 <path fill="none" stroke="rgb(179,179,179)" stroke-linejoin="round" d="M 3648,7065 L 3648,6915"/>
 <path fill="none" stroke="rgb(179,179,179)" stroke-linejoin="round" d="M 4276,7065 L 4276,6915"/>
 <path fill="none" stroke="rgb(179,179,179)" stroke-linejoin="round" d="M 4276,7065 L 4276,6915"/>
 <path fill="none" stroke="rgb(179,179,179)" stroke-linejoin="round" d="M 4904,7065 L 4904,6915"/>
 <path fill="none" stroke="rgb(179,179,179)" stroke-linejoin="round" d="M 4904,7065 L 4904,6915"/>
 <path fill="none" stroke="rgb(179,179,179)" stroke-linejoin="round" d="M 5533,7065 L 5533,6915"/>
 <path fill="none" stroke="rgb(179,179,179)" stroke-linejoin="round" d="M 5533,7065 L 5533,6915"/>
 <path fill="none" stroke="rgb(179,179,179)" stroke-linejoin="round" d="M 6161,7065 L 6161,6915"/>
 <path fill="none" stroke="rgb(179,179,179)" stroke-linejoin="round" d="M 6161,7065 L 6161,6915"/>
 <path fill="none" stroke="rgb(179,179,179)" stroke-linejoin="round" d="M 6789,7065 L 6789,6915"/>
 <path fill="none" stroke="rgb(179,179,179)" stroke-linejoin="round" d="M 6789,7065 L 6789,6915"/>
 <path fill="none" stroke="rgb(179,179,179)" stroke-linejoin="round" d="M 7417,7065 L 7417,6915"/>
 <path fill="none" stroke="rgb(179,179,179)" stroke-linejoin="round" d="M 7417,7065 L 7417,6915"/>
 <path fill="none" stroke="rgb(179,179,179)" stroke-linejoin="round" d="M 8045,7065 L 8045,6915"/>
 <path fill="none" stroke="rgb(179,179,179)" stroke-linejoin="round" d="M 8045,7065 L 8045,6915"/>
 <path fill="none" stroke="rgb(179,179,179)" stroke-linejoin="round" d="M 8673,7065 L 8673,6915"/>
 <path fill="none" stroke="rgb(179,179,179)" stroke-linejoin="round" d="M 8673,7065 L 8673,6915"/>
 <path fill="none" stroke="rgb(179,179,179)" stroke-linejoin="round" d="M 9301,7065 L 9301,6915"/>
 <path fill="none" stroke="rgb(179,179,179)" stroke-linejoin="round" d="M 9301,7065 L 9301,6915"/>
 <path fill="none" stroke="rgb(179,179,179)" stroke-linejoin="round" d="M 9929,7065 L 9929,6915"/>
 <path fill="none" stroke="rgb(179,179,179)" stroke-linejoin="round" d="M 9929,7065 L 9929,6915"/>
 <path fill="none" stroke="rgb(179,179,179)" stroke-linejoin="round" d="M 10557,7065 L 10557,6915"/>
 <path fill="none" stroke="rgb(179,179,179)" stroke-linejoin="round" d="M 10557,7065 L 10557,6915"/>
 <path fill="none" stroke="rgb(179,179,179)" stroke-linejoin="round" d="M 11185,7065 L 11185,6915"/>
 <path fill="none" stroke="rgb(179,179,179)" stroke-linejoin="round" d="M 11185,7065 L 11185,6915"/>
 <path fill="none" stroke="rgb(179,179,179)" stroke-linejoin="round" d="M 11814,7065 L 11814,6915"/>
 <path fill="none" stroke="rgb(179,179,179)" stroke-linejoin="round" d="M 11814,7065 L 11814,6915"/>
 <path fill="none" stroke="rgb(179,179,179)" stroke-linejoin="round" d="M 12442,7065 L 12442,6915"/>
 <path fill="none" stroke="rgb(179,179,179)" stroke-linejoin="round" d="M 12442,7065 L 12442,6915"/>
 <path fill="none" stroke="rgb(179,179,179)" stroke-linejoin="round" d="M 13070,7065 L 13070,6915"/>
 <path fill="none" stroke="rgb(179,179,179)" stroke-linejoin="round" d="M 13070,7065 L 13070,6915"/>
 <path fill="none" stroke="rgb(179,179,179)" stroke-linejoin="round" d="M 13698,7065 L 13698,6915"/>
 <path fill="none" stroke="rgb(179,179,179)" stroke-linejoin="round" d="M 13698,7065 L 13698,6915"/>
 <path fill="none" stroke="rgb(179,179,179)" stroke-linejoin="round" d="M 14326,7065 L 14326,6915"/>
 <path fill="none" stroke="rgb(179,179,179)" stroke-linejoin="round" d="M 14326,7065 L 14326,6915"/>
 <path fill="none" stroke="rgb(179,179,179)" stroke-linejoin="round" d="M 14955,7065 L 14955,6915"/>
 <path fill="none" stroke="rgb(179,179,179)" stroke-linejoin="round" d="M 14955,7065 L 14955,6915"/>
 <path fill="none" stroke="rgb(179,179,179)" stroke-linejoin="round" d="M 1764,6915 L 14955,6915"/>
 <path fill="none" stroke="rgb(179,179,179)" stroke-linejoin="round" d="M 1614,6915 L 1764,6915"/>
 <path fill="none" stroke="rgb(179,179,179)" stroke-linejoin="round" d="M 1614,6915 L 1764,6915"/>
 <path fill="none" stroke="rgb(179,179,179)" stroke-linejoin="round" d="M 1614,6094 L 1764,6094"/>
 <path fill="none" stroke="rgb(179,179,179)" stroke-linejoin="round" d="M 1614,6094 L 1764,6094"/>
 <path fill="none" stroke="rgb(179,179,179)" stroke-linejoin="round" d="M 1614,5274 L 1764,5274"/>
 <path fill="none" stroke="rgb(179,179,179)" stroke-linejoin="round" d="M 1614,5274 L 1764,5274"/>
 <path fill="none" stroke="rgb(179,179,179)" stroke-linejoin="round" d="M 1614,4453 L 1764,4453"/>
 <path fill="none" stroke="rgb(179,179,179)" stroke-linejoin="round" d="M 1614,4453 L 1764,4453"/>
 <path fill="none" stroke="rgb(179,179,179)" stroke-linejoin="round" d="M 1614,3634 L 1764,3634"/>
 <path fill="none" stroke="rgb(179,179,179)" stroke-linejoin="round" d="M 1614,3634 L 1764,3634"/>
 <path fill="none" stroke="rgb(179,179,179)" stroke-linejoin="round" d="M 1614,2813 L 1764,2813"/>
 <path fill="none" stroke="rgb(179,179,179)" stroke-linejoin="round" d="M 1614,2813 L 1764,2813"/>
 <path fill="none" stroke="rgb(179,179,179)" stroke-linejoin="round" d="M 1614,1993 L 1764,1993"/>
 <path fill="none" stroke="rgb(179,179,179)" stroke-linejoin="round" d="M 1614,1993 L 1764,1993"/>
 <path fill="none" stroke="rgb(179,179,179)" stroke-linejoin="round" d="M 1614,1172 L 1764,1172"/>
 <path fill="none" stroke="rgb(179,179,179)" stroke-linejoin="round" d="M 1614,1172 L 1764,1172"/>
 <path fill="none" stroke="rgb(179,179,179)" stroke-linejoin="round" d="M 1614,352 L 1764,352"/>
 <path fill="none" stroke="rgb(179,179,179)" stroke-linejoin="round" d="M 1614,352 L 1764,352"/>
 <path fill="none" stroke="rgb(179,179,179)" stroke-linejoin="round" d="M 1764,6915 L 1764,352"/>
 <path fill="none" stroke="rgb(179,179,179)" stroke-linejoin="round" d="M 15105,6915 L 14955,6915"/>
 <path fill="none" stroke="rgb(179,179,179)" stroke-linejoin="round" d="M 15105,6915 L 14955,6915"/>
 <path fill="none" stroke="rgb(179,179,179)" stroke-linejoin="round" d="M 15105,5821 L 14955,5821"/>
 <path fill="none" stroke="rgb(179,179,179)" stroke-linejoin="round" d="M 15105,5821 L 14955,5821"/>
 <path fill="none" stroke="rgb(179,179,179)" stroke-linejoin="round" d="M 15105,4727 L 14955,4727"/>
 <path fill="none" stroke="rgb(179,179,179)" stroke-linejoin="round" d="M 15105,4727 L 14955,4727"/>
 <path fill="none" stroke="rgb(179,179,179)" stroke-linejoin="round" d="M 15105,3634 L 14955,3634"/>
 <path fill="none" stroke="rgb(179,179,179)" stroke-linejoin="round" d="M 15105,3634 L 14955,3634"/>
 <path fill="none" stroke="rgb(179,179,179)" stroke-linejoin="round" d="M 15105,2540 L 14955,2540"/>
 <path fill="none" stroke="rgb(179,179,179)" stroke-linejoin="round" d="M 15105,2540 L 14955,2540"/>
 <path fill="none" stroke="rgb(179,179,179)" stroke-linejoin="round" d="M 15105,1446 L 14955,1446"/>
 <path fill="none" stroke="rgb(179,179,179)" stroke-linejoin="round" d="M 15105,1446 L 14955,1446"/>
 <path fill="none" stroke="rgb(179,179,179)" stroke-linejoin="round" d="M 15105,352 L 14955,352"/>
 <path fill="none" stroke="rgb(179,179,179)" stroke-linejoin="round" d="M 15105,352 L 14955,352"/>
 <path fill="none" stroke="rgb(179,179,179)" stroke-linejoin="round" d="M 14955,6915 L 14955,352"/>
 <path fill="none" stroke="rgb(28,28,28)" stroke-width="80" stroke-linejoin="round" d="M 1764,6910 L 2392,6702 3020,6618 3648,6594 4276,6451 4904,6381 5533,6275 6161,6048 6789,5750 7417,5508 8045,5291 8673,4927 9301,4531 9929,3973 10557,3498 11185,2926 11814,2265 12442,1480 13070,1130 13698,887 14326,813 14955,2216"/>
 <path fill="none" stroke="rgb(102,102,102)" stroke-width="80" stroke-linejoin="round" stroke-dasharray="158,158" d="M 1764,6904 L 2392,6685 3020,6586 3648,6564 4276,6400 4904,6324 5533,6247 6161,6006 6789,5700 7417,5449 8045,5219 8673,4956 9301,4573 9929,4026 10557,3699 11185,3152 11814,2627 12442,1905 13070,1588 13698,1500 14326,1402 14955,2627"/>
 <text class="TextShape"><tspan class="TextParagraph" font-family="Baskerville" font-size="353px" font-weight="400"><tspan class="TextPosition" x="1367" y="7483"><tspan fill="rgb(17,17,17)" stroke="none">1924</tspan></tspan></tspan></text>
 <text class="TextShape"><tspan class="TextParagraph" font-family="Baskerville" font-size="353px" font-weight="400"><tspan class="TextPosition" x="2623" y="7483"><tspan fill="rgb(17,17,17)" stroke="none">1926</tspan></tspan></tspan></text>
 <text class="TextShape"><tspan class="TextParagraph" font-family="Baskerville" font-size="353px" font-weight="400"><tspan class="TextPosition" x="3879" y="7483"><tspan fill="rgb(17,17,17)" stroke="none">1928</tspan></tspan></tspan></text>
 <text class="TextShape"><tspan class="TextParagraph" font-family="Baskerville" font-size="353px" font-weight="400"><tspan class="TextPosition" x="5136" y="7483"><tspan fill="rgb(17,17,17)" stroke="none">1930</tspan></tspan></tspan></text>
 <text class="TextShape"><tspan class="TextParagraph" font-family="Baskerville" font-size="353px" font-weight="400"><tspan class="TextPosition" x="6392" y="7483"><tspan fill="rgb(17,17,17)" stroke="none">1932</tspan></tspan></tspan></text>
 <text class="TextShape"><tspan class="TextParagraph" font-family="Baskerville" font-size="353px" font-weight="400"><tspan class="TextPosition" x="7648" y="7483"><tspan fill="rgb(17,17,17)" stroke="none">1934</tspan></tspan></tspan></text>
 <text class="TextShape"><tspan class="TextParagraph" font-family="Baskerville" font-size="353px" font-weight="400"><tspan class="TextPosition" x="8905" y="7483"><tspan fill="rgb(17,17,17)" stroke="none">1936</tspan></tspan></tspan></text>
 <text class="TextShape"><tspan class="TextParagraph" font-family="Baskerville" font-size="353px" font-weight="400"><tspan class="TextPosition" x="10161" y="7483"><tspan fill="rgb(17,17,17)" stroke="none">1938</tspan></tspan></tspan></text>
 <text class="TextShape"><tspan class="TextParagraph" font-family="Baskerville" font-size="353px" font-weight="400"><tspan class="TextPosition" x="11418" y="7483"><tspan fill="rgb(17,17,17)" stroke="none">1940</tspan></tspan></tspan></text>
 <text class="TextShape"><tspan class="TextParagraph" font-family="Baskerville" font-size="353px" font-weight="400"><tspan class="TextPosition" x="12674" y="7483"><tspan fill="rgb(17,17,17)" stroke="none">1942</tspan></tspan></tspan></text>
 <text class="TextShape"><tspan class="TextParagraph" font-family="Baskerville" font-size="353px" font-weight="400"><tspan class="TextPosition" x="13930" y="7483"><tspan fill="rgb(17,17,17)" stroke="none">1944</tspan></tspan></tspan></text>
 <text class="TextShape"><tspan class="TextParagraph" font-family="Baskerville" font-size="353px" font-weight="400"><tspan class="TextPosition" x="1316" y="7036"><tspan fill="rgb(17,17,17)" stroke="none">0</tspan></tspan></tspan></text>
 <text class="TextShape"><tspan class="TextParagraph" font-family="Baskerville" font-size="353px" font-weight="400"><tspan class="TextPosition" x="1316" y="6215"><tspan fill="rgb(17,17,17)" stroke="none">1</tspan></tspan></tspan></text>
 <text class="TextShape"><tspan class="TextParagraph" font-family="Baskerville" font-size="353px" font-weight="400"><tspan class="TextPosition" x="1316" y="5395"><tspan fill="rgb(17,17,17)" stroke="none">2</tspan></tspan></tspan></text>
 <text class="TextShape"><tspan class="TextParagraph" font-family="Baskerville" font-size="353px" font-weight="400"><tspan class="TextPosition" x="1316" y="4574"><tspan fill="rgb(17,17,17)" stroke="none">3</tspan></tspan></tspan></text>
 <text class="TextShape"><tspan class="TextParagraph" font-family="Baskerville" font-size="353px" font-weight="400"><tspan class="TextPosition" x="1316" y="3754"><tspan fill="rgb(17,17,17)" stroke="none">4</tspan></tspan></tspan></text>
 <text class="TextShape"><tspan class="TextParagraph" font-family="Baskerville" font-size="353px" font-weight="400"><tspan class="TextPosition" x="1316" y="2933"><tspan fill="rgb(17,17,17)" stroke="none">5</tspan></tspan></tspan></text>
 <text class="TextShape"><tspan class="TextParagraph" font-family="Baskerville" font-size="353px" font-weight="400"><tspan class="TextPosition" x="1316" y="2113"><tspan fill="rgb(17,17,17)" stroke="none">6</tspan></tspan></tspan></text>
 <text class="TextShape"><tspan class="TextParagraph" font-family="Baskerville" font-size="353px" font-weight="400"><tspan class="TextPosition" x="1316" y="1292"><tspan fill="rgb(17,17,17)" stroke="none">7</tspan></tspan></tspan></text>
 <text class="TextShape"><tspan class="TextParagraph" font-family="Baskerville" font-size="353px" font-weight="400"><tspan class="TextPosition" x="1316" y="472"><tspan fill="rgb(17,17,17)" stroke="none">8</tspan></tspan></tspan></text>
 <text class="TextShape"><tspan class="TextParagraph" font-family="Baskerville" font-size="353px" font-weight="400"><tspan class="TextPosition" x="15205" y="7036"><tspan fill="rgb(17,17,17)" stroke="none">0</tspan></tspan></tspan></text>
 <text class="TextShape"><tspan class="TextParagraph" font-family="Baskerville" font-size="353px" font-weight="400"><tspan class="TextPosition" x="15205" y="5942"><tspan fill="rgb(17,17,17)" stroke="none">10</tspan></tspan></tspan></text>
 <text class="TextShape"><tspan class="TextParagraph" font-family="Baskerville" font-size="353px" font-weight="400"><tspan class="TextPosition" x="15205" y="4848"><tspan fill="rgb(17,17,17)" stroke="none">20</tspan></tspan></tspan></text>
 <text class="TextShape"><tspan class="TextParagraph" font-family="Baskerville" font-size="353px" font-weight="400"><tspan class="TextPosition" x="15205" y="3754"><tspan fill="rgb(17,17,17)" stroke="none">30</tspan></tspan></tspan></text>
 <text class="TextShape"><tspan class="TextParagraph" font-family="Baskerville" font-size="353px" font-weight="400"><tspan class="TextPosition" x="15205" y="2660"><tspan fill="rgb(17,17,17)" stroke="none">40</tspan></tspan></tspan></text>
 <text class="TextShape"><tspan class="TextParagraph" font-family="Baskerville" font-size="353px" font-weight="400"><tspan class="TextPosition" x="15205" y="1566"><tspan fill="rgb(17,17,17)" stroke="none">50</tspan></tspan></tspan></text>
 <text class="TextShape"><tspan class="TextParagraph" font-family="Baskerville" font-size="353px" font-weight="400"><tspan class="TextPosition" x="15205" y="472"><tspan fill="rgb(17,17,17)" stroke="none">60</tspan></tspan></tspan></text>
 <path fill="rgb(255,255,255)" stroke="none" d="M 5526,2170 L 2444,2170 2444,504 8607,504 8607,2170 5526,2170 Z"/>
 <path fill="none" stroke="rgb(28,28,28)" stroke-width="80" stroke-linejoin="round" d="M 3226,992 L 4826,992"/>
 <path fill="none" stroke="rgb(102,102,102)" stroke-width="80" stroke-linejoin="round" stroke-dasharray="158,158" d="M 3226,1680 L 4826,1680"/>
 <text class="TextShape"><tspan class="TextParagraph" font-family="Baskerville" font-size="353px" font-weight="400"><tspan class="TextPosition" x="4926" y="1112"><tspan fill="rgb(17,17,17)" stroke="none">licences</tspan></tspan></tspan></text>
 <text class="TextShape"><tspan class="TextParagraph" font-family="Baskerville" font-size="353px" font-weight="400"><tspan class="TextPosition" x="4926" y="1800"><tspan fill="rgb(17,17,17)" stroke="none">dissemination rate</tspan></tspan></tspan></text>
 <text class="TextShape" transform="rotate(-90 824 4950)"><tspan class="TextParagraph" font-family="Baskerville" font-size="318px" font-weight="400"><tspan class="TextPosition" x="824" y="4950"><tspan fill="rgb(17,17,17)" stroke="none">million licenses</tspan></tspan></tspan></text>
 <text class="TextShape" transform="rotate(-90 16314 3997)"><tspan class="TextParagraph" font-family="Baskerville" font-size="318px" font-weight="400"><tspan class="TextPosition" x="16314" y="3997"><tspan fill="rgb(17,17,17)" stroke="none">%</tspan></tspan></tspan></text>
</svg>
