<svg height="90mm" stroke-linejoin="round" stroke-width="28.222" viewBox="0 0 16000 9000" width="160mm" xmlns="http://www.w3.org/2000/svg"><path d="m8009 8999h-8009v-8999h16018v8999z" fill="#fff"/><g fill="none"><path d="m9021 8172h-6677v-7793h13354v7793z" stroke="#b3b3b3" stroke-linejoin="round"/><path d="m15698 8171h-13354" stroke="#b3b3b3" stroke-linejoin="round"/><path d="m15698 6872h-13354" stroke="#b3b3b3" stroke-linejoin="round"/><path d="m15698 5573h-13354" stroke="#b3b3b3" stroke-linejoin="round"/><path d="m15698 4275h-13354" stroke="#b3b3b3" stroke-linejoin="round"/><path d="m15698 2976h-13354" stroke="#b3b3b3" stroke-linejoin="round"/><path d="m15698 1677h-13354" stroke="#b3b3b3" stroke-linejoin="round"/><path d="m15698 378h-13354" stroke="#b3b3b3" stroke-linejoin="round"/><path d="m2344 8321v-150" stroke="#b3b3b3" stroke-linejoin="round"/><path d="m2344 8321v-150" stroke="#b3b3b3" stroke-linejoin="round"/><path d="m4251 8321v-150" stroke="#b3b3b3" stroke-linejoin="round"/><path d="m4251 8321v-150" stroke="#b3b3b3" stroke-linejoin="round"/><path d="m6159 8321v-150" stroke="#b3b3b3" stroke-linejoin="round"/><path d="m6159 8321v-150" stroke="#b3b3b3" stroke-linejoin="round"/><path d="m8066 8321v-150" stroke="#b3b3b3" stroke-linejoin="round"/><path d="m8066 8321v-150" stroke="#b3b3b3" stroke-linejoin="round"/><path d="m9974 8321v-150" stroke="#b3b3b3" stroke-linejoin="round"/><path d="m9974 8321v-150" stroke="#b3b3b3" stroke-linejoin="round"/><path d="m11882 8321v-150" stroke="#b3b3b3" stroke-linejoin="round"/><path d="m11882 8321v-150" stroke="#b3b3b3" stroke-linejoin="round"/><path d="m13790 8321v-150" stroke="#b3b3b3" stroke-linejoin="round"/><path d="m13790 8321v-150" stroke="#b3b3b3" stroke-linejoin="round"/><path d="m15698 8321v-150" stroke="#b3b3b3" stroke-linejoin="round"/><path d="m15698 8321v-150" stroke="#b3b3b3" stroke-linejoin="round"/><path d="m2344 8171h13354" stroke="#b3b3b3" stroke-linejoin="round"/><path d="m2194 8171h150" stroke="#b3b3b3" stroke-linejoin="round"/><path d="m2194 8171h150" stroke="#b3b3b3" stroke-linejoin="round"/><path d="m2194 6872h150" stroke="#b3b3b3" stroke-linejoin="round"/><path d="m2194 6872h150" stroke="#b3b3b3" stroke-linejoin="round"/><path d="m2194 5573h150" stroke="#b3b3b3" stroke-linejoin="round"/><path d="m2194 5573h150" stroke="#b3b3b3" stroke-linejoin="round"/><path d="m2194 4275h150" stroke="#b3b3b3" stroke-linejoin="round"/><path d="m2194 4275h150" stroke="#b3b3b3" stroke-linejoin="round"/><path d="m2194 2975h150" stroke="#b3b3b3" stroke-linejoin="round"/><path d="m2194 2975h150" stroke="#b3b3b3" stroke-linejoin="round"/><path d="m2194 1677h150" stroke="#b3b3b3" stroke-linejoin="round"/><path d="m2194 1677h150" stroke="#b3b3b3" stroke-linejoin="round"/><path d="m2194 378h150" stroke="#b3b3b3" stroke-linejoin="round"/><path d="m2194 378h150" stroke="#b3b3b3" stroke-linejoin="round"/><path d="m2344 8171v-7793" stroke="#b3b3b3" stroke-linejoin="round"/></g><path d="m13790 8171h1908v-6858h-1908z" fill="#ddd"/><path d="m11882 8171h1908v-5059h-1908z" fill="#ddd"/><path d="m9974 8171h1908v-4221h-1908z" fill="#ddd"/><path d="m8066 8171h1908v-3670h-1908z" fill="#ddd"/><path d="m6159 8171h1907v-2534h-1907z" fill="#ddd"/><path d="m4251 8171h1908v-2345h-1908z" fill="#ddd"/><path d="m2344 8171h1907v-1683h-1907z" fill="#ddd"/><path d="m3297 6449 1908 526 1908 351 1907-1149 1908 350 1908-311 1908-1066" fill="none" stroke="#808080" stroke-dasharray="51 51 51 51" stroke-linejoin="round" stroke-width="80"/><path d="m3297 8093 1908-449 1908-129 1907-195 1908-234 1908-39 1908-98" fill="none" stroke="#999" stroke-dasharray="158 158" stroke-linejoin="round" stroke-width="80"/><path d="m3297 6527 1908 975 1908 480 1907-955 1908 585 1908-273 1908-968" fill="none" stroke="#333" stroke-linejoin="round" stroke-width="80"/><text><tspan fill="#111" font-family="Constantia, serif" font-size="340" font-weight="400"><tspan fill="#111" font-family="Constantia, serif" font-size="340" x="2900" y="8739"><tspan fill="#111" font-family="Constantia, serif" font-size="340">1925</tspan></tspan></tspan></text><text><tspan fill="#111" font-family="Constantia, serif" font-size="340" font-weight="400"><tspan fill="#111" font-family="Constantia, serif" font-size="340" x="4808" y="8739"><tspan fill="#111" font-family="Constantia, serif" font-size="340">1926</tspan></tspan></tspan></text><text><tspan fill="#111" font-family="Constantia, serif" font-size="340" font-weight="400"><tspan fill="#111" font-family="Constantia, serif" font-size="340" x="6716" y="8739"><tspan fill="#111" font-family="Constantia, serif" font-size="340">1927</tspan></tspan></tspan></text><text><tspan fill="#111" font-family="Constantia, serif" font-size="340" font-weight="400"><tspan fill="#111" font-family="Constantia, serif" font-size="340" x="8624" y="8739"><tspan fill="#111" font-family="Constantia, serif" font-size="340">1928</tspan></tspan></tspan></text><text><tspan fill="#111" font-family="Constantia, serif" font-size="340" font-weight="400"><tspan fill="#111" font-family="Constantia, serif" font-size="340" x="10532" y="8739"><tspan fill="#111" font-family="Constantia, serif" font-size="340">1929</tspan></tspan></tspan></text><text><tspan fill="#111" font-family="Constantia, serif" font-size="340" font-weight="400"><tspan fill="#111" font-family="Constantia, serif" font-size="340" x="12440" y="8739"><tspan fill="#111" font-family="Constantia, serif" font-size="340">1930</tspan></tspan></tspan></text><text><tspan fill="#111" font-family="Constantia, serif" font-size="340" font-weight="400"><tspan fill="#111" font-family="Constantia, serif" font-size="340" x="14348" y="8739"><tspan fill="#111" font-family="Constantia, serif" font-size="340">1931</tspan></tspan></tspan></text><text><tspan fill="#111" font-family="Constantia, serif" font-size="340" font-weight="400"><tspan fill="#111" font-family="Constantia, serif" font-size="340" x="1896" y="8292"><tspan fill="#111" font-family="Constantia, serif" font-size="340">0</tspan></tspan></tspan></text><text><tspan fill="#111" font-family="Constantia, serif" font-size="340" font-weight="400"><tspan fill="#111" font-family="Constantia, serif" font-size="340" x="1499" y="6993"><tspan fill="#111" font-family="Constantia, serif" font-size="340">200</tspan></tspan></tspan></text><text><tspan fill="#111" font-family="Constantia, serif" font-size="340" font-weight="400"><tspan fill="#111" font-family="Constantia, serif" font-size="340" x="1499" y="5694"><tspan fill="#111" font-family="Constantia, serif" font-size="340">400</tspan></tspan></tspan></text><text><tspan fill="#111" font-family="Constantia, serif" font-size="340" font-weight="400"><tspan fill="#111" font-family="Constantia, serif" font-size="340" x="1499" y="4395"><tspan fill="#111" font-family="Constantia, serif" font-size="340">600</tspan></tspan></tspan></text><text><tspan fill="#111" font-family="Constantia, serif" font-size="340" font-weight="400"><tspan fill="#111" font-family="Constantia, serif" font-size="340" x="1499" y="3095"><tspan fill="#111" font-family="Constantia, serif" font-size="340">800</tspan></tspan></tspan></text><text><tspan fill="#111" font-family="Constantia, serif" font-size="340" font-weight="400"><tspan fill="#111" font-family="Constantia, serif" font-size="340" x="1300" y="1797"><tspan fill="#111" font-family="Constantia, serif" font-size="340">1000</tspan></tspan></tspan></text><text><tspan fill="#111" font-family="Constantia, serif" font-size="340" font-weight="400"><tspan fill="#111" font-family="Constantia, serif" font-size="340" x="1300" y="498"><tspan fill="#111" font-family="Constantia, serif" font-size="340">1200</tspan></tspan></tspan></text><path d="m5156 3322h-2577v-2697h5155v2697z" fill="#fff"/><path d="m3805 1150h-800v-211h1600v211z" fill="#ddd"/><path d="m3005 1663h1600" fill="none" stroke="#808080" stroke-dasharray="51 51 51 51" stroke-linejoin="round" stroke-width="80"/><path d="m3005 2282h1600" fill="none" stroke="#999" stroke-dasharray="158 158" stroke-linejoin="round" stroke-width="80"/><path d="m3005 2901h1600" fill="none" stroke="#333" stroke-linejoin="round" stroke-width="80"/><text><tspan fill="#111" font-family="Constantia, serif" font-size="340" font-weight="400"><tspan fill="#111" font-family="Constantia, serif" font-size="340" x="4705" y="1164"><tspan fill="#111" font-family="Constantia, serif" font-size="340">End of year total</tspan></tspan></tspan></text><text><tspan fill="#111" font-family="Constantia, serif" font-size="340" font-weight="400"><tspan fill="#111" font-family="Constantia, serif" font-size="340" x="4705" y="1783"><tspan fill="#111" font-family="Constantia, serif" font-size="340">New contracts</tspan></tspan></tspan></text><text><tspan fill="#111" font-family="Constantia, serif" font-size="340" font-weight="400"><tspan fill="#111" font-family="Constantia, serif" font-size="340" x="4705" y="2402"><tspan fill="#111" font-family="Constantia, serif" font-size="340">Withdrawals</tspan></tspan></tspan></text><text><tspan fill="#111" font-family="Constantia, serif" font-size="340" font-weight="400"><tspan fill="#111" font-family="Constantia, serif" font-size="340" x="4705" y="3021"><tspan fill="#111" font-family="Constantia, serif" font-size="340">Net increase</tspan></tspan></tspan></text><text transform="matrix(0 -1 1 0 -5253 6901)"><tspan fill="#111" font-family="Constantia, serif" font-size="340" font-weight="400"><tspan fill="#111" font-family="Constantia, serif" font-size="340" x="824" y="6077"><tspan fill="#111" font-family="Constantia, serif" font-size="340">thousands of contracts</tspan></tspan></tspan></text></svg>